# 3ds Max Wavefront OBJ Exporter v0.97b - (c)2007 guruware
# File Created: 10.04.2018 00:29:32

mtllib Zoo_Base.mtl

#
# object Cylinder046
#

v  451.0920 -182.8681 981.3358
v  266.5923 -182.8681 1165.8354
v  5.6704 -182.8681 1165.8354
v  -178.8293 -182.8681 981.3358
v  -178.8293 -182.8681 720.4138
v  5.6703 -182.8681 535.9141
v  266.5923 -182.8681 535.9141
v  451.0920 -182.8681 720.4138
v  266.5923 13.9823 535.9141
v  451.0920 13.9823 720.4138
v  5.6703 13.9823 535.9141
v  -178.8293 13.9823 720.4138
v  -178.8293 13.9823 981.3358
v  5.6704 13.9823 1165.8354
v  266.5923 13.9823 1165.8354
v  451.0920 13.9823 981.3358
v  -363.3290 -182.8681 1165.8354
v  -624.2509 -182.8681 1165.8354
v  -808.7507 -182.8681 981.3358
v  -808.7507 -182.8681 720.4138
v  -624.2510 -182.8681 535.9141
v  -363.3290 -182.8681 535.9141
v  -363.3290 13.9823 535.9141
v  -624.2510 13.9823 535.9141
v  -808.7507 13.9823 720.4138
v  -808.7507 13.9823 981.3358
v  -624.2509 13.9823 1165.8354
v  -363.3290 13.9823 1165.8354
v  -178.8293 -182.8681 351.4145
v  -363.3290 -182.8681 535.9142
v  -624.2510 -182.8681 535.9142
v  -808.7507 -182.8681 351.4145
v  -808.7507 -182.8681 90.4926
v  -624.2510 -182.8681 -94.0073
v  -363.3290 -182.8681 -94.0072
v  -178.8293 -182.8681 90.4925
v  -363.3290 13.9823 -94.0072
v  -178.8293 13.9823 90.4925
v  -624.2510 13.9823 -94.0073
v  -808.7507 13.9823 90.4926
v  -808.7507 13.9823 351.4145
v  -624.2510 13.9823 535.9142
v  -363.3290 13.9823 535.9142
v  -178.8293 13.9823 351.4145
v  451.0920 -182.8681 351.4145
v  266.5923 -182.8681 535.9142
v  5.6704 -182.8681 535.9142
v  5.6703 -182.8681 -94.0072
v  266.5923 -182.8681 -94.0072
v  451.0920 -182.8681 90.4924
v  266.5923 13.9823 -94.0072
v  451.0920 13.9823 90.4924
v  5.6703 13.9823 -94.0072
v  5.6704 13.9823 535.9142
v  266.5923 13.9823 535.9142
v  451.0920 13.9823 351.4145
v  1081.0125 -182.8681 351.4146
v  896.5127 -182.8681 535.9142
v  635.5908 -182.8681 535.9142
v  451.0910 -182.8681 351.4145
v  451.0911 -182.8681 90.4925
v  635.5907 -182.8681 -94.0072
v  896.5128 -182.8681 -94.0072
v  1081.0125 -182.8681 90.4925
v  896.5128 13.9823 -94.0072
v  1081.0125 13.9823 90.4925
v  635.5907 13.9823 -94.0072
v  451.0911 13.9823 90.4925
v  451.0910 13.9823 351.4145
v  635.5908 13.9823 535.9142
v  896.5127 13.9823 535.9142
v  1081.0125 13.9823 351.4146
v  1081.0125 -182.8681 981.3358
v  896.5128 -182.8681 1165.8354
v  635.5908 -182.8681 1165.8354
v  451.0911 -182.8681 981.3358
v  451.0910 -182.8681 720.4138
v  635.5908 -182.8681 535.9141
v  896.5128 -182.8681 535.9141
v  1081.0125 -182.8681 720.4138
v  896.5128 13.9823 535.9141
v  1081.0125 13.9823 720.4138
v  635.5908 13.9823 535.9141
v  451.0910 13.9823 720.4138
v  451.0911 13.9823 981.3358
v  635.5908 13.9823 1165.8354
v  896.5128 13.9823 1165.8354
v  1081.0125 13.9823 981.3358
v  1710.9351 -182.8681 351.4146
v  1526.4354 -182.8681 535.9142
v  1265.5134 -182.8681 535.9142
v  1081.0137 -182.8681 351.4146
v  1081.0137 -182.8681 90.4926
v  1265.5134 -182.8681 -94.0071
v  1526.4354 -182.8681 -94.0072
v  1710.9351 -182.8681 90.4925
v  1526.4354 13.9823 -94.0072
v  1710.9351 13.9823 90.4925
v  1265.5134 13.9823 -94.0071
v  1081.0137 13.9823 90.4926
v  1081.0137 13.9823 351.4146
v  1265.5134 13.9823 535.9142
v  1526.4354 13.9823 535.9142
v  1710.9351 13.9823 351.4146
v  1710.9352 -182.8681 981.3358
v  1526.4355 -182.8681 1165.8354
v  1265.5137 -182.8681 1165.8354
v  1081.0139 -182.8681 981.3358
v  1081.0139 -182.8681 720.4138
v  1265.5135 -182.8681 535.9141
v  1526.4355 -182.8681 535.9140
v  1710.9352 -182.8681 720.4137
v  1526.4355 13.9823 535.9140
v  1710.9352 13.9823 720.4137
v  1265.5135 13.9823 535.9141
v  1081.0139 13.9823 720.4138
v  1081.0139 13.9823 981.3358
v  1265.5137 13.9823 1165.8354
v  1526.4355 13.9823 1165.8354
v  1710.9352 13.9823 981.3358
v  2340.8562 -182.8681 351.4145
v  2156.3564 -182.8681 535.9142
v  1895.4346 -182.8681 535.9142
v  1710.9348 -182.8681 351.4145
v  1710.9347 -182.8681 90.4925
v  1895.4344 -182.8681 -94.0072
v  2156.3564 -182.8681 -94.0073
v  2340.8562 -182.8681 90.4925
v  2156.3564 13.9823 -94.0073
v  2340.8562 13.9823 90.4925
v  1895.4344 13.9823 -94.0072
v  1710.9347 13.9823 90.4925
v  1710.9348 13.9823 351.4145
v  1895.4346 13.9823 535.9142
v  2156.3564 13.9823 535.9142
v  2340.8562 13.9823 351.4145
v  2340.8569 -182.8681 -278.5068
v  2156.3574 -182.8681 -94.0072
v  1895.4353 -182.8681 -94.0072
v  1710.9355 -182.8681 -278.5068
v  1710.9355 -182.8681 -539.4290
v  1895.4354 -182.8681 -723.9285
v  2156.3572 -182.8681 -723.9287
v  2340.8572 -182.8681 -539.4290
v  2156.3572 13.9823 -723.9287
v  2340.8572 13.9823 -539.4290
v  1895.4354 13.9823 -723.9285
v  1710.9355 13.9823 -539.4290
v  1710.9355 13.9823 -278.5068
v  1895.4353 13.9823 -94.0072
v  2156.3574 13.9823 -94.0072
v  2340.8569 13.9823 -278.5068
v  1081.0125 -182.8681 -278.5066
v  896.5128 -182.8681 -94.0070
v  635.5908 -182.8681 -94.0070
v  451.0910 -182.8681 -278.5067
v  451.0910 -182.8681 -539.4287
v  635.5907 -182.8681 -723.9285
v  896.5127 -182.8681 -723.9285
v  1081.0125 -182.8681 -539.4287
v  896.5127 13.9823 -723.9285
v  1081.0125 13.9823 -539.4287
v  635.5907 13.9823 -723.9285
v  451.0910 13.9823 -539.4287
v  451.0910 13.9823 -278.5067
v  635.5908 13.9823 -94.0070
v  896.5128 13.9823 -94.0070
v  1081.0125 13.9823 -278.5066
v  451.0920 -182.8681 -278.5067
v  266.5923 -182.8681 -94.0071
v  5.6704 -182.8681 -94.0071
v  -178.8293 -182.8681 -278.5068
v  -178.8293 -182.8681 -539.4287
v  5.6703 -182.8681 -723.9285
v  266.5923 -182.8681 -723.9283
v  451.0920 -182.8681 -539.4288
v  266.5923 13.9823 -723.9283
v  451.0920 13.9823 -539.4288
v  5.6703 13.9823 -723.9285
v  -178.8293 13.9823 -539.4287
v  -178.8293 13.9823 -278.5068
v  5.6704 13.9823 -94.0071
v  266.5923 13.9823 -94.0071
v  451.0920 13.9823 -278.5067
v  451.0921 -182.8681 -908.4281
v  5.6705 -182.8681 -723.9285
v  -178.8293 -182.8681 -908.4281
v  -178.8293 -182.8681 -1169.3501
v  5.6703 -182.8681 -1353.8499
v  266.5923 -182.8681 -1353.8499
v  451.0920 -182.8681 -1169.3501
v  266.5923 13.9823 -1353.8499
v  451.0920 13.9823 -1169.3501
v  5.6703 13.9823 -1353.8499
v  -178.8293 13.9823 -1169.3501
v  -178.8293 13.9823 -908.4281
v  5.6705 13.9823 -723.9285
v  451.0921 13.9823 -908.4281
v  -178.8293 -182.8681 -278.5067
v  -363.3290 -182.8681 -94.0071
v  -624.2509 -182.8681 -94.0070
v  -808.7506 -182.8681 -278.5067
v  -808.7507 -182.8681 -539.4287
v  -624.2510 -182.8681 -723.9283
v  -363.3290 -182.8681 -723.9285
v  -363.3290 13.9823 -723.9285
v  -624.2510 13.9823 -723.9283
v  -808.7507 13.9823 -539.4287
v  -808.7506 13.9823 -278.5067
v  -624.2509 13.9823 -94.0070
v  -363.3290 13.9823 -94.0071
v  -178.8293 13.9823 -278.5067
v  -808.7498 -182.8681 351.4145
v  -993.2495 -182.8681 535.9142
v  -1254.1715 -182.8681 535.9142
v  -1438.6713 -182.8681 351.4145
v  -1438.6713 -182.8681 90.4924
v  -1254.1716 -182.8681 -94.0072
v  -993.2495 -182.8681 -94.0073
v  -808.7499 -182.8681 90.4924
v  -993.2495 13.9823 -94.0073
v  -808.7499 13.9823 90.4924
v  -1254.1716 13.9823 -94.0072
v  -1438.6713 13.9823 90.4924
v  -1438.6713 13.9823 351.4145
v  -1254.1715 13.9823 535.9142
v  -993.2495 13.9823 535.9142
v  -808.7498 13.9823 351.4145
v  -808.7498 -182.8681 981.3358
v  -993.2495 -182.8681 1165.8354
v  -1254.1715 -182.8681 1165.8356
v  -1438.6711 -182.8681 981.3358
v  -1438.6714 -182.8681 720.4138
v  -1254.1715 -182.8681 535.9141
v  -993.2495 -182.8681 535.9141
v  -808.7498 -182.8681 720.4138
v  -993.2495 13.9823 535.9141
v  -808.7498 13.9823 720.4138
v  -1254.1715 13.9823 535.9141
v  -1438.6714 13.9823 720.4138
v  -1438.6711 13.9823 981.3358
v  -1254.1715 13.9823 1165.8356
v  -993.2495 13.9823 1165.8354
v  -808.7498 13.9823 981.3358
v  -1438.6716 -182.8681 351.4146
v  -1623.1713 -182.8681 535.9143
v  -1884.0933 -182.8681 535.9143
v  -2068.5930 -182.8681 351.4146
v  -2068.5930 -182.8681 90.4926
v  -1884.0933 -182.8681 -94.0071
v  -1623.1713 -182.8681 -94.0072
v  -1438.6716 -182.8681 90.4926
v  -1623.1713 13.9823 -94.0072
v  -1438.6716 13.9823 90.4926
v  -1884.0933 13.9823 -94.0071
v  -2068.5930 13.9823 90.4926
v  -2068.5930 13.9823 351.4146
v  -1884.0933 13.9823 535.9143
v  -1623.1713 13.9823 535.9143
v  -1438.6716 13.9823 351.4146
v  -1438.6720 -182.8681 -278.5068
v  -1623.1718 -182.8681 -94.0072
v  -1884.0938 -182.8681 -94.0071
v  -2068.5935 -182.8681 -278.5068
v  -2068.5935 -182.8681 -539.4287
v  -1884.0938 -182.8681 -723.9285
v  -1623.1719 -182.8681 -723.9285
v  -1438.6721 -182.8681 -539.4288
v  -1623.1719 13.9823 -723.9285
v  -1438.6721 13.9823 -539.4288
v  -1884.0938 13.9823 -723.9285
v  -2068.5935 13.9823 -539.4287
v  -2068.5935 13.9823 -278.5068
v  -1884.0938 13.9823 -94.0071
v  -1623.1718 13.9823 -94.0072
v  -1438.6720 13.9823 -278.5068
# 276 vertices

vn 0.7173 -0.6303 0.2971
vn 0.2971 -0.6303 0.7173
vn -0.2971 -0.6303 0.7173
vn -0.7173 -0.6303 0.2971
vn -0.7173 -0.6303 -0.2971
vn -0.2971 -0.6303 -0.7173
vn 0.2971 -0.6303 -0.7173
vn 0.7173 -0.6303 -0.2971
vn 0.2971 0.6303 -0.7173
vn 0.7173 0.6303 -0.2971
vn -0.2971 0.6303 -0.7173
vn -0.7173 0.6303 -0.2971
vn -0.7173 0.6303 0.2971
vn -0.2971 0.6303 0.7173
vn 0.2971 0.6303 0.7173
vn 0.7173 0.6303 0.2971
vn -0.2971 -0.6303 -0.7172
vn 0.2971 -0.6303 -0.7172
vn 0.2971 0.6303 -0.7172
vn -0.2971 0.6303 -0.7172
vn -0.7172 -0.6303 0.2971
vn -0.7172 -0.6303 -0.2971
vn -0.7172 0.6303 -0.2971
vn -0.7172 0.6303 0.2971
vn 0.7172 -0.6303 0.2971
vn 0.7172 -0.6303 -0.2971
vn 0.7172 0.6303 -0.2971
vn 0.7172 0.6303 0.2971
# 28 vertex normals

vt 581.9715 581.9716 0.0000
vt 340.9110 681.8220 0.0000
vt 99.8506 581.9716 0.0000
vt 0.0000 340.9110 0.0000
vt 99.8505 99.8505 0.0000
vt 340.9110 0.0000 0.0000
vt 581.9715 99.8505 0.0000
vt 681.8220 340.9110 0.0000
vt 1606.5054 0.0000 1.0000
vt 1874.2562 0.0000 1.0000
vt 1874.2562 196.8504 1.0000
vt 1606.5054 196.8504 1.0000
vt -267.7509 0.0000 1.0000
vt 0.0001 0.0000 1.0000
vt 0.0001 196.8504 1.0000
vt -267.7509 196.8504 1.0000
vt 267.7509 0.0000 1.0000
vt 267.7509 196.8504 1.0000
vt 535.5018 0.0000 1.0000
vt 535.5018 196.8504 1.0000
vt 803.2528 0.0000 1.0000
vt 803.2528 196.8504 1.0000
vt 1071.0035 0.0000 1.0000
vt 1071.0035 196.8504 1.0000
vt 1338.7544 0.0000 1.0000
vt 1338.7544 196.8504 1.0000
vt 581.9715 581.9715 0.0000
vt 99.8505 581.9715 0.0000
vt 99.8506 99.8505 0.0000
# 29 texture coords

o Cylinder046
g Cylinder046
usemtl wire_088144225
s 1
f 1/1/1 2/2/2 3/3/3 4/4/4 5/5/5 6/6/6 7/7/7 8/8/8 
s 8
f 8/9/8 7/10/7 9/11/9 10/12/10 
f 7/13/7 6/14/6 11/15/11 9/16/9 
f 6/14/6 5/17/5 12/18/12 11/15/11 
f 5/17/5 4/19/4 13/20/13 12/18/12 
f 4/19/4 3/21/3 14/22/14 13/20/13 
f 3/21/3 2/23/2 15/24/15 14/22/14 
f 2/23/2 1/25/1 16/26/16 15/24/15 
f 1/25/1 8/9/8 10/12/10 16/26/16 
s 1
f 16/7/16 10/8/10 9/27/9 11/2/11 12/28/12 13/4/13 14/29/14 15/6/15 
f 4/1/1 17/2/2 18/3/3 19/4/4 20/5/5 21/6/17 22/7/18 5/8/8 
s 8
f 5/9/8 22/10/18 23/11/19 12/12/10 
f 22/13/18 21/14/17 24/15/20 23/16/19 
f 21/14/17 20/17/5 25/18/12 24/15/20 
f 20/17/5 19/19/4 26/20/13 25/18/12 
f 19/19/4 18/21/3 27/22/14 26/20/13 
f 18/21/3 17/23/2 28/24/15 27/22/14 
f 17/23/2 4/25/1 13/26/16 28/24/15 
f 4/25/1 5/9/8 12/12/10 13/26/16 
s 1
f 13/7/16 12/8/10 23/27/19 24/2/20 25/28/12 26/4/13 27/29/14 28/6/15 
f 29/1/1 30/2/2 31/3/3 32/4/4 33/5/5 34/6/6 35/7/7 36/8/8 
s 8
f 36/9/8 35/10/7 37/11/9 38/12/10 
f 35/13/7 34/14/6 39/15/11 37/16/9 
f 34/14/6 33/17/5 40/18/12 39/15/11 
f 33/17/5 32/19/4 41/20/13 40/18/12 
f 32/19/4 31/21/3 42/22/14 41/20/13 
f 31/21/3 30/23/2 43/24/15 42/22/14 
f 30/23/2 29/25/1 44/26/16 43/24/15 
f 29/25/1 36/9/8 38/12/10 44/26/16 
s 1
f 44/7/16 38/8/10 37/27/9 39/2/11 40/28/12 41/4/13 42/29/14 43/6/15 
f 45/1/1 46/2/2 47/3/3 29/4/21 36/5/22 48/6/6 49/7/7 50/8/8 
s 8
f 50/9/8 49/10/7 51/11/9 52/12/10 
f 49/13/7 48/14/6 53/15/11 51/16/9 
f 48/14/6 36/17/22 38/18/23 53/15/11 
f 36/17/22 29/19/21 44/20/24 38/18/23 
f 29/19/21 47/21/3 54/22/14 44/20/24 
f 47/21/3 46/23/2 55/24/15 54/22/14 
f 46/23/2 45/25/1 56/26/16 55/24/15 
f 45/25/1 50/9/8 52/12/10 56/26/16 
s 1
f 56/7/16 52/8/10 51/27/9 53/2/11 38/28/23 44/4/24 54/29/14 55/6/15 
f 57/1/25 58/2/2 59/3/3 60/4/4 61/5/5 62/6/6 63/7/7 64/8/26 
s 8
f 64/9/26 63/10/7 65/11/9 66/12/27 
f 63/13/7 62/14/6 67/15/11 65/16/9 
f 62/14/6 61/17/5 68/18/12 67/15/11 
f 61/17/5 60/19/4 69/20/13 68/18/12 
f 60/19/4 59/21/3 70/22/14 69/20/13 
f 59/21/3 58/23/2 71/24/15 70/22/14 
f 58/23/2 57/25/25 72/26/28 71/24/15 
f 57/25/25 64/9/26 66/12/27 72/26/28 
s 1
f 72/7/28 66/8/27 65/27/9 67/2/11 68/28/12 69/4/13 70/29/14 71/6/15 
f 73/1/1 74/2/2 75/3/3 76/4/4 77/5/5 78/6/17 79/7/18 80/8/8 
s 8
f 80/9/8 79/10/18 81/11/19 82/12/10 
f 79/13/18 78/14/17 83/15/20 81/16/19 
f 78/14/17 77/17/5 84/18/12 83/15/20 
f 77/17/5 76/19/4 85/20/13 84/18/12 
f 76/19/4 75/21/3 86/22/14 85/20/13 
f 75/21/3 74/23/2 87/24/15 86/22/14 
f 74/23/2 73/25/1 88/26/16 87/24/15 
f 73/25/1 80/9/8 82/12/10 88/26/16 
s 1
f 88/7/16 82/8/10 81/27/19 83/2/20 84/28/12 85/4/13 86/29/14 87/6/15 
f 89/1/25 90/2/2 91/3/3 92/4/21 93/5/22 94/6/6 95/7/7 96/8/26 
s 8
f 96/9/26 95/10/7 97/11/9 98/12/27 
f 95/13/7 94/14/6 99/15/11 97/16/9 
f 94/14/6 93/17/22 100/18/23 99/15/11 
f 93/17/22 92/19/21 101/20/24 100/18/23 
f 92/19/21 91/21/3 102/22/14 101/20/24 
f 91/21/3 90/23/2 103/24/15 102/22/14 
f 90/23/2 89/25/25 104/26/28 103/24/15 
f 89/25/25 96/9/26 98/12/27 104/26/28 
s 1
f 104/7/28 98/8/27 97/27/9 99/2/11 100/28/23 101/4/24 102/29/14 103/6/15 
f 105/1/1 106/2/2 107/3/3 108/4/4 109/5/5 110/6/6 111/7/7 112/8/8 
s 8
f 112/9/8 111/10/7 113/11/9 114/12/10 
f 111/13/7 110/14/6 115/15/11 113/16/9 
f 110/14/6 109/17/5 116/18/12 115/15/11 
f 109/17/5 108/19/4 117/20/13 116/18/12 
f 108/19/4 107/21/3 118/22/14 117/20/13 
f 107/21/3 106/23/2 119/24/15 118/22/14 
f 106/23/2 105/25/1 120/26/16 119/24/15 
f 105/25/1 112/9/8 114/12/10 120/26/16 
s 1
f 120/7/16 114/8/10 113/27/9 115/2/11 116/28/12 117/4/13 118/29/14 119/6/15 
f 121/1/1 122/2/2 123/3/3 124/4/21 125/5/22 126/6/6 127/7/7 128/8/8 
s 8
f 128/9/8 127/10/7 129/11/9 130/12/10 
f 127/13/7 126/14/6 131/15/11 129/16/9 
f 126/14/6 125/17/22 132/18/23 131/15/11 
f 125/17/22 124/19/21 133/20/24 132/18/23 
f 124/19/21 123/21/3 134/22/14 133/20/24 
f 123/21/3 122/23/2 135/24/15 134/22/14 
f 122/23/2 121/25/1 136/26/16 135/24/15 
f 121/25/1 128/9/8 130/12/10 136/26/16 
s 1
f 136/7/16 130/8/10 129/27/9 131/2/11 132/28/23 133/4/24 134/29/14 135/6/15 
f 137/1/25 138/2/2 139/3/3 140/4/21 141/5/22 142/6/17 143/7/18 144/8/26 
s 8
f 144/9/26 143/10/18 145/11/19 146/12/27 
f 143/13/18 142/14/17 147/15/20 145/16/19 
f 142/14/17 141/17/22 148/18/23 147/15/20 
f 141/17/22 140/19/21 149/20/24 148/18/23 
f 140/19/21 139/21/3 150/22/14 149/20/24 
f 139/21/3 138/23/2 151/24/15 150/22/14 
f 138/23/2 137/25/25 152/26/28 151/24/15 
f 137/25/25 144/9/26 146/12/27 152/26/28 
s 1
f 152/7/28 146/8/27 145/27/19 147/2/20 148/28/23 149/4/24 150/29/14 151/6/15 
f 153/1/1 154/2/2 155/3/3 156/4/4 157/5/5 158/6/6 159/7/7 160/8/8 
s 8
f 160/9/8 159/10/7 161/11/9 162/12/10 
f 159/13/7 158/14/6 163/15/11 161/16/9 
f 158/14/6 157/17/5 164/18/12 163/15/11 
f 157/17/5 156/19/4 165/20/13 164/18/12 
f 156/19/4 155/21/3 166/22/14 165/20/13 
f 155/21/3 154/23/2 167/24/15 166/22/14 
f 154/23/2 153/25/1 168/26/16 167/24/15 
f 153/25/1 160/9/8 162/12/10 168/26/16 
s 1
f 168/7/16 162/8/10 161/27/9 163/2/11 164/28/12 165/4/13 166/29/14 167/6/15 
f 169/1/1 170/2/2 171/3/3 172/4/4 173/5/5 174/6/6 175/7/7 176/8/8 
s 8
f 176/9/8 175/10/7 177/11/9 178/12/10 
f 175/13/7 174/14/6 179/15/11 177/16/9 
f 174/14/6 173/17/5 180/18/12 179/15/11 
f 173/17/5 172/19/4 181/20/13 180/18/12 
f 172/19/4 171/21/3 182/22/14 181/20/13 
f 171/21/3 170/23/2 183/24/15 182/22/14 
f 170/23/2 169/25/1 184/26/16 183/24/15 
f 169/25/1 176/9/8 178/12/10 184/26/16 
s 1
f 184/7/16 178/8/10 177/27/9 179/2/11 180/28/12 181/4/13 182/29/14 183/6/15 
f 185/1/1 175/2/2 186/3/3 187/4/4 188/5/5 189/6/6 190/7/7 191/8/8 
s 8
f 191/9/8 190/10/7 192/11/9 193/12/10 
f 190/13/7 189/14/6 194/15/11 192/16/9 
f 189/14/6 188/17/5 195/18/12 194/15/11 
f 188/17/5 187/19/4 196/20/13 195/18/12 
f 187/19/4 186/21/3 197/22/14 196/20/13 
f 186/21/3 175/23/2 177/24/15 197/22/14 
f 175/23/2 185/25/1 198/26/16 177/24/15 
f 185/25/1 191/9/8 193/12/10 198/26/16 
s 1
f 198/7/16 193/8/10 192/27/9 194/2/11 195/28/12 196/4/13 197/29/14 177/6/15 
f 199/1/1 200/2/2 201/3/3 202/4/4 203/5/5 204/6/6 205/7/7 173/8/8 
s 8
f 173/9/8 205/10/7 206/11/9 180/12/10 
f 205/13/7 204/14/6 207/15/11 206/16/9 
f 204/14/6 203/17/5 208/18/12 207/15/11 
f 203/17/5 202/19/4 209/20/13 208/18/12 
f 202/19/4 201/21/3 210/22/14 209/20/13 
f 201/21/3 200/23/2 211/24/15 210/22/14 
f 200/23/2 199/25/1 212/26/16 211/24/15 
f 199/25/1 173/9/8 180/12/10 212/26/16 
s 1
f 212/7/16 180/8/10 206/27/9 207/2/11 208/28/12 209/4/13 210/29/14 211/6/15 
f 213/1/1 214/2/2 215/3/3 216/4/4 217/5/5 218/6/6 219/7/7 220/8/8 
s 8
f 220/9/8 219/10/7 221/11/9 222/12/10 
f 219/13/7 218/14/6 223/15/11 221/16/9 
f 218/14/6 217/17/5 224/18/12 223/15/11 
f 217/17/5 216/19/4 225/20/13 224/18/12 
f 216/19/4 215/21/3 226/22/14 225/20/13 
f 215/21/3 214/23/2 227/24/15 226/22/14 
f 214/23/2 213/25/1 228/26/16 227/24/15 
f 213/25/1 220/9/8 222/12/10 228/26/16 
s 1
f 228/7/16 222/8/10 221/27/9 223/2/11 224/28/12 225/4/13 226/29/14 227/6/15 
f 229/1/1 230/2/2 231/3/3 232/4/21 233/5/22 234/6/17 235/7/18 236/8/8 
s 8
f 236/9/8 235/10/18 237/11/19 238/12/10 
f 235/13/18 234/14/17 239/15/20 237/16/19 
f 234/14/17 233/17/22 240/18/23 239/15/20 
f 233/17/22 232/19/21 241/20/24 240/18/23 
f 232/19/21 231/21/3 242/22/14 241/20/24 
f 231/21/3 230/23/2 243/24/15 242/22/14 
f 230/23/2 229/25/1 244/26/16 243/24/15 
f 229/25/1 236/9/8 238/12/10 244/26/16 
s 1
f 244/7/16 238/8/10 237/27/19 239/2/20 240/28/23 241/4/24 242/29/14 243/6/15 
f 245/1/1 246/2/2 247/3/3 248/4/21 249/5/22 250/6/17 251/7/18 252/8/8 
s 8
f 252/9/8 251/10/18 253/11/19 254/12/10 
f 251/13/18 250/14/17 255/15/20 253/16/19 
f 250/14/17 249/17/22 256/18/23 255/15/20 
f 249/17/22 248/19/21 257/20/24 256/18/23 
f 248/19/21 247/21/3 258/22/14 257/20/24 
f 247/21/3 246/23/2 259/24/15 258/22/14 
f 246/23/2 245/25/1 260/26/16 259/24/15 
f 245/25/1 252/9/8 254/12/10 260/26/16 
s 1
f 260/7/16 254/8/10 253/27/19 255/2/20 256/28/23 257/4/24 258/29/14 259/6/15 
f 261/1/1 262/2/2 263/3/3 264/4/21 265/5/22 266/6/6 267/7/7 268/8/8 
s 8
f 268/9/8 267/10/7 269/11/9 270/12/10 
f 267/13/7 266/14/6 271/15/11 269/16/9 
f 266/14/6 265/17/22 272/18/23 271/15/11 
f 265/17/22 264/19/21 273/20/24 272/18/23 
f 264/19/21 263/21/3 274/22/14 273/20/24 
f 263/21/3 262/23/2 275/24/15 274/22/14 
f 262/23/2 261/25/1 276/26/16 275/24/15 
f 261/25/1 268/9/8 270/12/10 276/26/16 
s 1
f 276/7/16 270/8/10 269/27/9 271/2/11 272/28/23 273/4/24 274/29/14 275/6/15 
# 180 polygons

